# xmcd CD database file
#
# Track frame offsets:
#	150
#	20018
#	37796
#	55098
#	69189
#	91952
#	107832
#	125456
#	138586
#	154364
#	171896
#	187792
#	205320
#	223787
#	241747
#	258396
#
# Disc length: 3633 seconds
#
# Revision: 0
# Processed by: cddbd v1.4PL0 Copyright (c) Steve Scherf et al.
# Submitted via: CDex 1.50
#
DISCID=db0e2f10
DTITLE=Westlife - Queen of my heart
DYEAR=2001
DGENRE=New Age
TTITLE0=Queen of my heart(radio edit)
TTITLE1=When you're looking like that(single re-mix)
TTITLE2=Reason for living
TTITLE3=Uptown girl
TTITLE4=Uptown girl
TTITLE5=What becomes of the broken hearted
TTITLE6=I'll be there
TTITLE7=My girl
TTITLE8=I lay my love on you
TTITLE9=My Love
TTITLE10=I lay my love on you
TTITLE11=What makes a man
TTITLE12=Close
TTITLE13=Isolation
TTITLE14=Puzzle of my heart
TTITLE15=Dreams come true
EXTD=YEAR: 2001
EXTT0=
EXTT1=
EXTT2=
EXTT3=
EXTT4=
EXTT5=
EXTT6=
EXTT7=
EXTT8=
EXTT9=
EXTT10=
EXTT11=
EXTT12=
EXTT13=
EXTT14=
EXTT15=
PLAYORDER=
